<?xml version="1.0" standalone="no"?>
<!DOCTYPE svg PUBLIC "-//W3C//DTD SVG 20010904//EN"
 "http://www.w3.org/TR/2001/REC-SVG-20010904/DTD/svg10.dtd">
<svg version="1.0" xmlns="http://www.w3.org/2000/svg"
 width="200.000000pt" height="200.000000pt" viewBox="0 0 200.000000 200.000000"
 preserveAspectRatio="xMidYMid meet">
<metadata>
Created by potrace 1.11, written by Peter Selinger 2001-2013
</metadata>
<g transform="translate(0.000000,200.000000) scale(0.100000,-0.100000)"
fill="#000000" stroke="none">
<path d="M775 1766 c-84 -26 -142 -75 -193 -164 -20 -35 -45 -77 -54 -92 -25
-43 -305 -524 -362 -623 -28 -49 -64 -109 -79 -135 -80 -133 -98 -213 -72
-312 49 -186 265 -279 440 -189 54 28 80 53 128 124 22 33 48 66 56 73 77 63
182 99 260 87 100 -15 176 -64 233 -150 23 -33 55 -73 72 -89 46 -44 127 -77
194 -80 52 -2 135 16 155 34 5 4 32 -1 60 -12 224 -85 440 114 373 344 -19 65
-60 116 -133 165 -93 61 -141 144 -142 243 -2 110 43 194 133 254 111 74 148
133 152 246 2 63 -1 83 -22 127 -51 107 -161 171 -276 160 -68 -6 -73 -8 -316
-151 -100 -59 -187 -104 -192 -101 -5 3 -25 34 -44 68 -44 78 -97 130 -161
158 -59 26 -154 33 -210 15z m174 -674 c61 -44 82 -115 55 -182 -66 -157 -294
-108 -294 63 0 56 31 103 87 133 36 19 49 21 85 13 24 -5 54 -18 67 -27z"/>
</g>
</svg>
